<?xml version="1.0" standalone="no"?>
<!DOCTYPE svg PUBLIC "-//W3C//DTD SVG 20010904//EN"
 "http://www.w3.org/TR/2001/REC-SVG-20010904/DTD/svg10.dtd">
<svg version="1.0" xmlns="http://www.w3.org/2000/svg"
 width="688.000000pt" height="99.000000pt" viewBox="0 0 688.000000 99.000000"
 preserveAspectRatio="xMidYMid meet">

<g transform="translate(0.000000,99.000000) scale(0.100000,-0.100000)"
fill="#000000" stroke="none">
<path d="M1776 915 c-3 -9 -6 -84 -6 -166 0 -82 -4 -149 -9 -149 -5 0 -33 11
-63 25 -133 62 -291 -1 -356 -144 -50 -109 -24 -275 56 -356 81 -82 206 -104
311 -55 49 22 54 23 62 7 7 -12 23 -17 60 -17 l49 0 -2 433 -3 432 -46 3 c-36
2 -48 -1 -53 -13z m-85 -400 c106 -69 105 -271 -1 -342 -25 -18 -47 -23 -95
-23 -106 0 -163 57 -172 173 -14 174 135 280 268 192z"/>
<path d="M4096 915 c-3 -9 -6 -205 -6 -436 l0 -419 55 0 c42 0 55 3 55 15 0
20 13 19 63 -7 32 -16 60 -21 117 -21 87 0 133 19 192 80 58 59 80 120 80 218
0 176 -97 290 -258 303 -52 4 -71 0 -119 -22 -32 -14 -61 -26 -66 -26 -5 0
-10 73 -11 163 l-3 162 -46 3 c-36 2 -48 -1 -53 -13z m375 -400 c53 -34 74
-85 74 -175 0 -61 -4 -82 -24 -113 -64 -103 -228 -104 -291 -1 -27 42 -36 133
-21 192 32 115 160 163 262 97z"/>
<path d="M6206 914 c-3 -9 -6 -83 -6 -165 0 -96 -4 -149 -10 -149 -6 0 -29 9
-52 21 -86 44 -192 34 -279 -27 -83 -57 -129 -180 -111 -293 23 -136 86 -214
200 -247 64 -19 120 -14 191 17 l49 21 22 -22 c12 -12 28 -19 37 -16 8 3 26 6
39 6 l24 0 0 429 c0 474 5 441 -65 441 -21 0 -35 -6 -39 -16z m-101 -390 c20
-9 49 -35 63 -57 23 -35 27 -51 27 -116 -1 -135 -57 -201 -172 -201 -74 0
-116 25 -150 89 -42 80 -25 212 35 264 52 47 127 55 197 21z"/>
<path d="M277 889 c-97 -23 -180 -98 -217 -197 -71 -190 -35 -455 78 -565 100
-97 274 -112 389 -33 51 35 116 119 111 145 -2 9 -22 26 -45 39 l-42 23 -15
-29 c-25 -48 -91 -108 -126 -115 -165 -33 -270 86 -270 307 0 155 45 261 130
304 85 43 176 20 246 -61 l39 -46 39 22 c22 12 41 27 43 33 5 17 -70 108 -109
132 -38 24 -143 52 -184 51 -16 -1 -46 -5 -67 -10z"/>
<path d="M2826 864 c-3 -9 -6 -193 -6 -410 l0 -394 55 0 55 0 0 139 c0 76 3
153 6 170 6 31 7 31 73 31 l67 0 33 -57 c78 -134 100 -171 130 -225 l32 -58
60 0 c32 0 59 2 59 5 0 2 -32 60 -71 127 -39 68 -84 146 -100 174 l-30 52 49
30 c76 49 112 112 112 196 0 107 -61 191 -159 220 -78 23 -356 23 -365 0z
m329 -98 c91 -39 102 -197 16 -236 -31 -14 -168 -25 -204 -16 -24 6 -25 9 -32
121 -5 85 -4 119 5 130 17 20 167 21 215 1z"/>
<path d="M2045 836 c-22 -22 -26 -33 -21 -59 12 -64 77 -87 121 -42 47 46 26
111 -38 122 -30 4 -40 1 -62 -21z"/>
<path d="M876 630 c-63 -25 -119 -79 -148 -144 -18 -41 -23 -68 -23 -141 1
-137 46 -220 149 -270 157 -77 326 -11 386 150 40 109 14 262 -58 338 -76 81
-204 109 -306 67z m149 -91 c153 -42 182 -274 46 -366 -47 -32 -135 -32 -181
0 -97 65 -114 228 -33 318 49 54 97 67 168 48z"/>
<path d="M3629 632 c-75 -31 -116 -68 -151 -139 -28 -58 -31 -72 -30 -149 3
-185 107 -298 276 -298 188 -1 305 150 276 355 -12 82 -27 116 -75 164 -78 77
-201 105 -296 67z m192 -117 c106 -69 105 -271 -1 -342 -25 -18 -47 -23 -95
-23 -103 0 -161 55 -172 164 -15 141 72 245 192 230 22 -3 56 -16 76 -29z"/>
<path d="M4914 640 c-70 -22 -127 -72 -163 -143 -30 -59 -35 -76 -35 -145 0
-103 24 -172 79 -227 82 -83 207 -105 310 -55 49 24 65 25 65 5 0 -12 13 -15
55 -15 l55 0 0 239 c0 258 -5 327 -26 335 -23 9 -84 -6 -84 -20 0 -20 -23 -17
-65 7 -41 24 -142 34 -191 19z m160 -115 c50 -24 86 -88 93 -165 5 -51 2 -67
-21 -114 -35 -71 -76 -96 -155 -96 -107 0 -171 74 -171 198 1 157 120 240 254
177z"/>
<path d="M5605 634 c-21 -8 -49 -24 -61 -35 -25 -23 -44 -18 -44 10 0 14 -9
20 -37 23 -21 3 -44 3 -50 0 -10 -3 -13 -70 -13 -288 l0 -284 50 0 50 0 0 163
c0 149 2 166 24 212 39 85 109 127 185 112 26 -5 29 -3 35 25 8 42 8 45 -10
62 -19 20 -75 20 -129 0z"/>
<path d="M6541 636 c-76 -25 -121 -85 -121 -162 0 -92 65 -148 193 -164 123
-15 176 -56 149 -115 -16 -35 -55 -47 -139 -43 -69 3 -74 5 -113 43 l-41 40
-36 -20 c-20 -11 -38 -25 -40 -31 -6 -19 66 -92 114 -115 37 -18 64 -23 128
-23 152 1 235 67 235 188 0 92 -69 144 -225 170 -68 11 -94 20 -107 37 -51 61
26 124 128 104 21 -4 53 -22 79 -46 l44 -40 40 21 c40 20 41 21 27 48 -17 32
-71 84 -104 102 -37 19 -160 22 -211 6z"/>
<path d="M2047 428 c-4 -112 -7 -240 -7 -286 l0 -83 53 3 52 3 3 283 2 282
-48 0 -49 0 -6 -202z"/>
</g>
</svg>
